<mxfile host="app.diagrams.net" agent="Mozilla/5.0 (Windows NT 10.0; Win64; x64; rv:134.0) Gecko/20100101 Firefox/134.0" version="25.0.3">
  <diagram id="C5RBs43oDa-KdzZeNtuy" name="Page-1">
    <mxGraphModel dx="2440" dy="1334" grid="0" gridSize="10" guides="1" tooltips="1" connect="1" arrows="1" fold="1" page="1" pageScale="1" pageWidth="827" pageHeight="1169" math="0" shadow="0">
      <root>
        <mxCell id="WIyWlLk6GJQsqaUBKTNV-0" />
        <mxCell id="WIyWlLk6GJQsqaUBKTNV-1" parent="WIyWlLk6GJQsqaUBKTNV-0" />
        <mxCell id="-20XFg5VI_Zg_wGNE_jV-1" value="&lt;b&gt;&lt;font style=&quot;font-size: 16px;&quot;&gt;Servo ESP32&lt;/font&gt;&lt;/b&gt;" style="text;html=1;align=center;verticalAlign=middle;whiteSpace=wrap;rounded=0;" vertex="1" parent="WIyWlLk6GJQsqaUBKTNV-1">
          <mxGeometry x="279" y="34" width="269" height="30" as="geometry" />
        </mxCell>
        <mxCell id="-20XFg5VI_Zg_wGNE_jV-4" style="edgeStyle=orthogonalEdgeStyle;rounded=0;orthogonalLoop=1;jettySize=auto;html=1;exitX=0.5;exitY=1;exitDx=0;exitDy=0;entryX=0.5;entryY=0;entryDx=0;entryDy=0;" edge="1" parent="WIyWlLk6GJQsqaUBKTNV-1" source="-20XFg5VI_Zg_wGNE_jV-2" target="-20XFg5VI_Zg_wGNE_jV-3">
          <mxGeometry relative="1" as="geometry" />
        </mxCell>
        <mxCell id="-20XFg5VI_Zg_wGNE_jV-2" value="&lt;font style=&quot;font-size: 9px;&quot;&gt;Start&lt;/font&gt;" style="rounded=1;whiteSpace=wrap;html=1;" vertex="1" parent="WIyWlLk6GJQsqaUBKTNV-1">
          <mxGeometry x="331" y="128" width="115" height="31" as="geometry" />
        </mxCell>
        <mxCell id="-20XFg5VI_Zg_wGNE_jV-6" style="edgeStyle=orthogonalEdgeStyle;rounded=0;orthogonalLoop=1;jettySize=auto;html=1;exitX=0.5;exitY=1;exitDx=0;exitDy=0;" edge="1" parent="WIyWlLk6GJQsqaUBKTNV-1" source="-20XFg5VI_Zg_wGNE_jV-3" target="-20XFg5VI_Zg_wGNE_jV-5">
          <mxGeometry relative="1" as="geometry" />
        </mxCell>
        <mxCell id="-20XFg5VI_Zg_wGNE_jV-3" value="&lt;div&gt;&lt;font style=&quot;font-size: 9px;&quot;&gt;Wait X sec&lt;/font&gt;&lt;/div&gt;&lt;div&gt;&lt;font style=&quot;font-size: 9px;&quot;&gt;for bootup of Jetson&lt;br&gt;&lt;/font&gt;&lt;/div&gt;" style="rounded=0;whiteSpace=wrap;html=1;" vertex="1" parent="WIyWlLk6GJQsqaUBKTNV-1">
          <mxGeometry x="305" y="187" width="167" height="38" as="geometry" />
        </mxCell>
        <mxCell id="-20XFg5VI_Zg_wGNE_jV-8" style="edgeStyle=orthogonalEdgeStyle;rounded=0;orthogonalLoop=1;jettySize=auto;html=1;exitX=0.5;exitY=1;exitDx=0;exitDy=0;entryX=0.5;entryY=0;entryDx=0;entryDy=0;" edge="1" parent="WIyWlLk6GJQsqaUBKTNV-1" source="-20XFg5VI_Zg_wGNE_jV-5" target="-20XFg5VI_Zg_wGNE_jV-7">
          <mxGeometry relative="1" as="geometry" />
        </mxCell>
        <mxCell id="-20XFg5VI_Zg_wGNE_jV-5" value="&lt;font style=&quot;font-size: 9px;&quot;&gt;Initialize libraries&lt;/font&gt;" style="rounded=0;whiteSpace=wrap;html=1;" vertex="1" parent="WIyWlLk6GJQsqaUBKTNV-1">
          <mxGeometry x="305" y="246" width="167" height="32" as="geometry" />
        </mxCell>
        <mxCell id="-20XFg5VI_Zg_wGNE_jV-13" style="edgeStyle=orthogonalEdgeStyle;rounded=0;orthogonalLoop=1;jettySize=auto;html=1;exitX=0.5;exitY=1;exitDx=0;exitDy=0;entryX=0.5;entryY=0;entryDx=0;entryDy=0;" edge="1" parent="WIyWlLk6GJQsqaUBKTNV-1" source="-20XFg5VI_Zg_wGNE_jV-7" target="-20XFg5VI_Zg_wGNE_jV-12">
          <mxGeometry relative="1" as="geometry" />
        </mxCell>
        <mxCell id="-20XFg5VI_Zg_wGNE_jV-14" value="yes" style="edgeLabel;html=1;align=center;verticalAlign=middle;resizable=0;points=[];" vertex="1" connectable="0" parent="-20XFg5VI_Zg_wGNE_jV-13">
          <mxGeometry x="-0.132" y="1" relative="1" as="geometry">
            <mxPoint x="-16" y="2" as="offset" />
          </mxGeometry>
        </mxCell>
        <mxCell id="-20XFg5VI_Zg_wGNE_jV-7" value="&lt;div&gt;&lt;font style=&quot;font-size: 9px;&quot;&gt;UART to Jetson&lt;/font&gt;&lt;/div&gt;&lt;div&gt;&lt;font style=&quot;font-size: 9px;&quot;&gt;successful&lt;br&gt;&lt;/font&gt;&lt;/div&gt;" style="rhombus;whiteSpace=wrap;html=1;" vertex="1" parent="WIyWlLk6GJQsqaUBKTNV-1">
          <mxGeometry x="319.5" y="327" width="138" height="80" as="geometry" />
        </mxCell>
        <mxCell id="-20XFg5VI_Zg_wGNE_jV-9" style="edgeStyle=orthogonalEdgeStyle;rounded=0;orthogonalLoop=1;jettySize=auto;html=1;exitX=1;exitY=0.5;exitDx=0;exitDy=0;entryX=0.5;entryY=0;entryDx=0;entryDy=0;" edge="1" parent="WIyWlLk6GJQsqaUBKTNV-1" source="-20XFg5VI_Zg_wGNE_jV-7" target="-20XFg5VI_Zg_wGNE_jV-7">
          <mxGeometry relative="1" as="geometry">
            <Array as="points">
              <mxPoint x="522" y="367" />
              <mxPoint x="522" y="303" />
              <mxPoint x="389" y="303" />
            </Array>
          </mxGeometry>
        </mxCell>
        <mxCell id="-20XFg5VI_Zg_wGNE_jV-10" value="no" style="edgeLabel;html=1;align=center;verticalAlign=middle;resizable=0;points=[];" vertex="1" connectable="0" parent="-20XFg5VI_Zg_wGNE_jV-9">
          <mxGeometry x="-0.8192" y="-2" relative="1" as="geometry">
            <mxPoint y="-10" as="offset" />
          </mxGeometry>
        </mxCell>
        <mxCell id="-20XFg5VI_Zg_wGNE_jV-18" style="edgeStyle=orthogonalEdgeStyle;rounded=0;orthogonalLoop=1;jettySize=auto;html=1;exitX=0.5;exitY=1;exitDx=0;exitDy=0;entryX=0.5;entryY=0;entryDx=0;entryDy=0;" edge="1" parent="WIyWlLk6GJQsqaUBKTNV-1" source="-20XFg5VI_Zg_wGNE_jV-12" target="-20XFg5VI_Zg_wGNE_jV-17">
          <mxGeometry relative="1" as="geometry" />
        </mxCell>
        <mxCell id="-20XFg5VI_Zg_wGNE_jV-12" value="&lt;div&gt;&lt;font style=&quot;font-size: 9px;&quot;&gt;UART to Jetson&lt;/font&gt;&lt;/div&gt;&lt;div&gt;&lt;font style=&quot;font-size: 9px;&quot;&gt;successful&lt;br&gt;&lt;/font&gt;&lt;/div&gt;" style="rhombus;whiteSpace=wrap;html=1;" vertex="1" parent="WIyWlLk6GJQsqaUBKTNV-1">
          <mxGeometry x="319.5" y="435" width="138" height="80" as="geometry" />
        </mxCell>
        <mxCell id="-20XFg5VI_Zg_wGNE_jV-15" style="edgeStyle=orthogonalEdgeStyle;rounded=0;orthogonalLoop=1;jettySize=auto;html=1;exitX=1;exitY=0.5;exitDx=0;exitDy=0;entryX=0.5;entryY=0;entryDx=0;entryDy=0;" edge="1" parent="WIyWlLk6GJQsqaUBKTNV-1" source="-20XFg5VI_Zg_wGNE_jV-12" target="-20XFg5VI_Zg_wGNE_jV-12">
          <mxGeometry relative="1" as="geometry">
            <Array as="points">
              <mxPoint x="520" y="475" />
              <mxPoint x="520" y="415" />
              <mxPoint x="389" y="415" />
            </Array>
          </mxGeometry>
        </mxCell>
        <mxCell id="-20XFg5VI_Zg_wGNE_jV-16" value="no" style="text;html=1;align=center;verticalAlign=middle;resizable=0;points=[];autosize=1;strokeColor=none;fillColor=none;" vertex="1" parent="WIyWlLk6GJQsqaUBKTNV-1">
          <mxGeometry x="469" y="452" width="32" height="26" as="geometry" />
        </mxCell>
        <mxCell id="-20XFg5VI_Zg_wGNE_jV-28" style="edgeStyle=orthogonalEdgeStyle;rounded=0;orthogonalLoop=1;jettySize=auto;html=1;exitX=0.5;exitY=1;exitDx=0;exitDy=0;entryX=0.5;entryY=0;entryDx=0;entryDy=0;" edge="1" parent="WIyWlLk6GJQsqaUBKTNV-1" source="-20XFg5VI_Zg_wGNE_jV-17" target="-20XFg5VI_Zg_wGNE_jV-26">
          <mxGeometry relative="1" as="geometry" />
        </mxCell>
        <mxCell id="-20XFg5VI_Zg_wGNE_jV-17" value="&lt;div&gt;&lt;font style=&quot;font-size: 9px;&quot;&gt;Sending&lt;/font&gt;&lt;/div&gt;&lt;div&gt;&lt;font style=&quot;font-size: 9px;&quot;&gt;success&lt;br&gt;&lt;/font&gt;&lt;/div&gt;" style="shape=parallelogram;perimeter=parallelogramPerimeter;whiteSpace=wrap;html=1;fixedSize=1;" vertex="1" parent="WIyWlLk6GJQsqaUBKTNV-1">
          <mxGeometry x="328.5" y="543" width="120" height="32" as="geometry" />
        </mxCell>
        <mxCell id="-20XFg5VI_Zg_wGNE_jV-19" value="yes" style="text;html=1;align=center;verticalAlign=middle;resizable=0;points=[];autosize=1;strokeColor=none;fillColor=none;" vertex="1" parent="WIyWlLk6GJQsqaUBKTNV-1">
          <mxGeometry x="355" y="515" width="37" height="26" as="geometry" />
        </mxCell>
        <mxCell id="-20XFg5VI_Zg_wGNE_jV-44" style="edgeStyle=orthogonalEdgeStyle;rounded=0;orthogonalLoop=1;jettySize=auto;html=1;exitX=1;exitY=0.5;exitDx=0;exitDy=0;entryX=0.5;entryY=0;entryDx=0;entryDy=0;" edge="1" parent="WIyWlLk6GJQsqaUBKTNV-1" source="-20XFg5VI_Zg_wGNE_jV-21" target="-20XFg5VI_Zg_wGNE_jV-26">
          <mxGeometry relative="1" as="geometry">
            <Array as="points">
              <mxPoint x="520" y="927" />
              <mxPoint x="520" y="597" />
              <mxPoint x="389" y="597" />
            </Array>
          </mxGeometry>
        </mxCell>
        <mxCell id="-20XFg5VI_Zg_wGNE_jV-50" style="edgeStyle=orthogonalEdgeStyle;rounded=0;orthogonalLoop=1;jettySize=auto;html=1;exitX=0.5;exitY=1;exitDx=0;exitDy=0;entryX=0.5;entryY=0;entryDx=0;entryDy=0;" edge="1" parent="WIyWlLk6GJQsqaUBKTNV-1" source="-20XFg5VI_Zg_wGNE_jV-21" target="-20XFg5VI_Zg_wGNE_jV-23">
          <mxGeometry relative="1" as="geometry" />
        </mxCell>
        <mxCell id="-20XFg5VI_Zg_wGNE_jV-21" value="&lt;font style=&quot;font-size: 9px;&quot;&gt;sensor UART available?&lt;/font&gt;" style="rhombus;whiteSpace=wrap;html=1;" vertex="1" parent="WIyWlLk6GJQsqaUBKTNV-1">
          <mxGeometry x="320" y="887" width="137" height="80" as="geometry" />
        </mxCell>
        <mxCell id="-20XFg5VI_Zg_wGNE_jV-49" style="edgeStyle=orthogonalEdgeStyle;rounded=0;orthogonalLoop=1;jettySize=auto;html=1;exitX=0.5;exitY=1;exitDx=0;exitDy=0;entryX=0.5;entryY=0;entryDx=0;entryDy=0;" edge="1" parent="WIyWlLk6GJQsqaUBKTNV-1" source="-20XFg5VI_Zg_wGNE_jV-23" target="-20XFg5VI_Zg_wGNE_jV-33">
          <mxGeometry relative="1" as="geometry" />
        </mxCell>
        <mxCell id="-20XFg5VI_Zg_wGNE_jV-23" value="&lt;div&gt;&lt;font style=&quot;font-size: 9px;&quot;&gt;read sensor&lt;/font&gt;&lt;/div&gt;&lt;div&gt;&lt;font style=&quot;font-size: 9px;&quot;&gt;data string&lt;br&gt;&lt;/font&gt;&lt;/div&gt;" style="shape=parallelogram;perimeter=parallelogramPerimeter;whiteSpace=wrap;html=1;fixedSize=1;" vertex="1" parent="WIyWlLk6GJQsqaUBKTNV-1">
          <mxGeometry x="328" y="987" width="121" height="32" as="geometry" />
        </mxCell>
        <mxCell id="-20XFg5VI_Zg_wGNE_jV-36" style="edgeStyle=orthogonalEdgeStyle;rounded=0;orthogonalLoop=1;jettySize=auto;html=1;exitX=0.5;exitY=1;exitDx=0;exitDy=0;entryX=0.5;entryY=0;entryDx=0;entryDy=0;" edge="1" parent="WIyWlLk6GJQsqaUBKTNV-1" source="-20XFg5VI_Zg_wGNE_jV-26" target="-20XFg5VI_Zg_wGNE_jV-35">
          <mxGeometry relative="1" as="geometry" />
        </mxCell>
        <mxCell id="-20XFg5VI_Zg_wGNE_jV-26" value="&lt;font style=&quot;font-size: 9px;&quot;&gt;jetson UART available&lt;/font&gt;" style="rhombus;whiteSpace=wrap;html=1;" vertex="1" parent="WIyWlLk6GJQsqaUBKTNV-1">
          <mxGeometry x="320" y="620" width="137" height="80" as="geometry" />
        </mxCell>
        <mxCell id="-20XFg5VI_Zg_wGNE_jV-30" style="edgeStyle=orthogonalEdgeStyle;rounded=0;orthogonalLoop=1;jettySize=auto;html=1;exitX=1;exitY=0.5;exitDx=0;exitDy=0;entryX=0.5;entryY=0;entryDx=0;entryDy=0;" edge="1" parent="WIyWlLk6GJQsqaUBKTNV-1" source="-20XFg5VI_Zg_wGNE_jV-26" target="-20XFg5VI_Zg_wGNE_jV-26">
          <mxGeometry relative="1" as="geometry">
            <Array as="points">
              <mxPoint x="520" y="659" />
              <mxPoint x="520" y="597" />
              <mxPoint x="388" y="597" />
            </Array>
          </mxGeometry>
        </mxCell>
        <mxCell id="-20XFg5VI_Zg_wGNE_jV-31" value="no" style="text;html=1;align=center;verticalAlign=middle;resizable=0;points=[];autosize=1;strokeColor=none;fillColor=none;" vertex="1" parent="WIyWlLk6GJQsqaUBKTNV-1">
          <mxGeometry x="469" y="633" width="32" height="26" as="geometry" />
        </mxCell>
        <mxCell id="-20XFg5VI_Zg_wGNE_jV-51" style="edgeStyle=orthogonalEdgeStyle;rounded=0;orthogonalLoop=1;jettySize=auto;html=1;exitX=0.5;exitY=1;exitDx=0;exitDy=0;entryX=0.5;entryY=0;entryDx=0;entryDy=0;" edge="1" parent="WIyWlLk6GJQsqaUBKTNV-1" source="-20XFg5VI_Zg_wGNE_jV-33" target="-20XFg5VI_Zg_wGNE_jV-26">
          <mxGeometry relative="1" as="geometry">
            <Array as="points">
              <mxPoint x="389" y="1101" />
              <mxPoint x="520" y="1101" />
              <mxPoint x="520" y="597" />
              <mxPoint x="389" y="597" />
            </Array>
          </mxGeometry>
        </mxCell>
        <mxCell id="-20XFg5VI_Zg_wGNE_jV-33" value="&lt;div&gt;&lt;font style=&quot;font-size: 9px;&quot;&gt;redirect sensor&lt;/font&gt;&lt;/div&gt;&lt;div&gt;&lt;font style=&quot;font-size: 9px;&quot;&gt;data string&lt;br&gt;&lt;/font&gt;&lt;/div&gt;" style="shape=parallelogram;perimeter=parallelogramPerimeter;whiteSpace=wrap;html=1;fixedSize=1;" vertex="1" parent="WIyWlLk6GJQsqaUBKTNV-1">
          <mxGeometry x="328" y="1049" width="121" height="32" as="geometry" />
        </mxCell>
        <mxCell id="-20XFg5VI_Zg_wGNE_jV-39" style="edgeStyle=orthogonalEdgeStyle;rounded=0;orthogonalLoop=1;jettySize=auto;html=1;exitX=0.5;exitY=1;exitDx=0;exitDy=0;entryX=0.5;entryY=0;entryDx=0;entryDy=0;" edge="1" parent="WIyWlLk6GJQsqaUBKTNV-1" source="-20XFg5VI_Zg_wGNE_jV-35" target="-20XFg5VI_Zg_wGNE_jV-38">
          <mxGeometry relative="1" as="geometry" />
        </mxCell>
        <mxCell id="-20XFg5VI_Zg_wGNE_jV-35" value="&lt;div&gt;&lt;font style=&quot;font-size: 9px;&quot;&gt;receive servo&lt;/font&gt;&lt;/div&gt;&lt;div&gt;&lt;font style=&quot;font-size: 9px;&quot;&gt;angles&lt;br&gt;&lt;/font&gt;&lt;/div&gt;" style="shape=parallelogram;perimeter=parallelogramPerimeter;whiteSpace=wrap;html=1;fixedSize=1;" vertex="1" parent="WIyWlLk6GJQsqaUBKTNV-1">
          <mxGeometry x="327.5" y="722" width="122" height="33" as="geometry" />
        </mxCell>
        <mxCell id="-20XFg5VI_Zg_wGNE_jV-37" value="yes" style="text;html=1;align=center;verticalAlign=middle;resizable=0;points=[];autosize=1;strokeColor=none;fillColor=none;" vertex="1" parent="WIyWlLk6GJQsqaUBKTNV-1">
          <mxGeometry x="353" y="696" width="37" height="26" as="geometry" />
        </mxCell>
        <mxCell id="-20XFg5VI_Zg_wGNE_jV-41" style="edgeStyle=orthogonalEdgeStyle;rounded=0;orthogonalLoop=1;jettySize=auto;html=1;exitX=0.5;exitY=1;exitDx=0;exitDy=0;entryX=0.5;entryY=0;entryDx=0;entryDy=0;" edge="1" parent="WIyWlLk6GJQsqaUBKTNV-1" source="-20XFg5VI_Zg_wGNE_jV-38" target="-20XFg5VI_Zg_wGNE_jV-40">
          <mxGeometry relative="1" as="geometry" />
        </mxCell>
        <mxCell id="-20XFg5VI_Zg_wGNE_jV-38" value="&lt;font style=&quot;font-size: 9px;&quot;&gt;calculate servo speed&lt;/font&gt;" style="rounded=0;whiteSpace=wrap;html=1;" vertex="1" parent="WIyWlLk6GJQsqaUBKTNV-1">
          <mxGeometry x="305" y="775" width="167" height="32" as="geometry" />
        </mxCell>
        <mxCell id="-20XFg5VI_Zg_wGNE_jV-42" style="edgeStyle=orthogonalEdgeStyle;rounded=0;orthogonalLoop=1;jettySize=auto;html=1;exitX=0.5;exitY=1;exitDx=0;exitDy=0;entryX=0.5;entryY=0;entryDx=0;entryDy=0;" edge="1" parent="WIyWlLk6GJQsqaUBKTNV-1" source="-20XFg5VI_Zg_wGNE_jV-40" target="-20XFg5VI_Zg_wGNE_jV-21">
          <mxGeometry relative="1" as="geometry" />
        </mxCell>
        <mxCell id="-20XFg5VI_Zg_wGNE_jV-40" value="&lt;div&gt;&lt;font style=&quot;font-size: 9px;&quot;&gt;send servo angle&lt;/font&gt;&lt;/div&gt;&lt;div&gt;&lt;font style=&quot;font-size: 9px;&quot;&gt;to PCA9685&lt;br&gt;&lt;/font&gt;&lt;/div&gt;" style="shape=parallelogram;perimeter=parallelogramPerimeter;whiteSpace=wrap;html=1;fixedSize=1;" vertex="1" parent="WIyWlLk6GJQsqaUBKTNV-1">
          <mxGeometry x="327.25" y="827" width="122.5" height="33" as="geometry" />
        </mxCell>
        <mxCell id="-20XFg5VI_Zg_wGNE_jV-45" value="no" style="text;html=1;align=center;verticalAlign=middle;resizable=0;points=[];autosize=1;strokeColor=none;fillColor=none;" vertex="1" parent="WIyWlLk6GJQsqaUBKTNV-1">
          <mxGeometry x="469" y="900" width="32" height="26" as="geometry" />
        </mxCell>
      </root>
    </mxGraphModel>
  </diagram>
</mxfile>
